# Blender v2.79 (sub 0) OBJ File: 'transmitter.blend'
# www.blender.org
mtllib transmitter.mtl
o Cube.007
v 0.778228 0.357542 0.854404
v 0.778228 0.246042 0.854404
v 0.778228 0.357542 0.965905
v 0.778228 0.246042 0.965905
v 0.810367 0.357542 0.854404
v 0.810367 0.246042 0.854404
v 0.810367 0.357542 0.965905
v 0.810367 0.246042 0.965905
vn -1.0000 0.0000 0.0000
vn 0.0000 0.0000 1.0000
vn 1.0000 0.0000 0.0000
vn 0.0000 0.0000 -1.0000
vn 0.0000 1.0000 0.0000
vn 0.0000 -1.0000 0.0000
usemtl Material.004
s off
f 2//1 3//1 1//1
f 4//2 7//2 3//2
f 8//3 5//3 7//3
f 6//4 1//4 5//4
f 7//5 1//5 3//5
f 4//6 6//6 8//6
f 2//1 4//1 3//1
f 4//2 8//2 7//2
f 8//3 6//3 5//3
f 6//4 2//4 1//4
f 7//5 5//5 1//5
f 4//6 2//6 6//6
o Cube.006
v 0.850048 0.464295 0.861092
v 0.850048 0.352795 0.861092
v 0.850048 0.464295 0.972593
v 0.850048 0.352795 0.972593
v 0.738547 0.464295 0.861092
v 0.738547 0.352795 0.861092
v 0.738547 0.464295 0.972593
v 0.738547 0.352795 0.972593
vn 1.0000 0.0000 0.0000
vn 0.0000 0.0000 1.0000
vn -1.0000 0.0000 0.0000
vn 0.0000 0.0000 -1.0000
vn 0.0000 1.0000 0.0000
vn 0.0000 -1.0000 0.0000
usemtl Material.005
s off
f 10//7 9//7 11//7
f 12//8 11//8 15//8
f 16//9 15//9 13//9
f 14//10 13//10 9//10
f 15//11 11//11 9//11
f 12//12 16//12 14//12
f 10//7 11//7 12//7
f 12//8 15//8 16//8
f 16//9 13//9 14//9
f 14//10 9//10 10//10
f 15//11 9//11 13//11
f 12//12 14//12 10//12
o Cube.005
v 0.597634 0.369726 0.908494
v 0.545208 0.317299 0.908494
v 0.597634 0.369726 0.982636
v 0.545208 0.317299 0.982636
v 0.545208 0.422152 0.908494
v 0.492781 0.369726 0.908494
v 0.545208 0.422152 0.982636
v 0.492781 0.369726 0.982636
vn 0.7071 -0.7071 0.0000
vn 0.0000 0.0000 1.0000
vn -0.7071 0.7071 0.0000
vn 0.0000 0.0000 -1.0000
vn 0.7071 0.7071 0.0000
vn -0.7071 -0.7071 0.0000
usemtl Material.004
s off
f 18//13 17//13 19//13
f 20//14 19//14 23//14
f 24//15 23//15 21//15
f 22//16 21//16 17//16
f 23//17 19//17 17//17
f 20//18 24//18 22//18
f 18//13 19//13 20//13
f 20//14 23//14 24//14
f 24//15 21//15 22//15
f 22//16 17//16 18//16
f 23//17 17//17 21//17
f 20//18 22//18 18//18
o Cube.004
v 0.435887 0.369726 0.908494
v 0.383461 0.317299 0.908494
v 0.435887 0.369726 0.982636
v 0.383461 0.317299 0.982636
v 0.383461 0.422152 0.908494
v 0.331034 0.369726 0.908494
v 0.383461 0.422152 0.982636
v 0.331034 0.369726 0.982636
vn 0.7071 -0.7071 0.0000
vn 0.0000 0.0000 1.0000
vn -0.7071 0.7071 0.0000
vn 0.0000 0.0000 -1.0000
vn 0.7071 0.7071 0.0000
vn -0.7071 -0.7071 0.0000
usemtl Material.004
s off
f 26//19 25//19 27//19
f 28//20 27//20 31//20
f 32//21 31//21 29//21
f 30//22 29//22 25//22
f 31//23 27//23 25//23
f 28//24 32//24 30//24
f 26//19 27//19 28//19
f 28//20 31//20 32//20
f 32//21 29//21 30//21
f 30//22 25//22 26//22
f 31//23 25//23 29//23
f 28//24 30//24 26//24
o Cube.003
v 0.259027 0.442623 0.840470
v 0.259027 0.296829 0.840470
v 0.259027 0.442623 0.986265
v 0.259027 0.296829 0.986265
v 0.113233 0.442623 0.840470
v 0.113233 0.296829 0.840470
v 0.113233 0.442623 0.986265
v 0.113233 0.296829 0.986265
vn 1.0000 0.0000 0.0000
vn 0.0000 0.0000 1.0000
vn -1.0000 0.0000 0.0000
vn 0.0000 0.0000 -1.0000
vn 0.0000 1.0000 0.0000
vn 0.0000 -1.0000 0.0000
usemtl Material.003
s off
f 34//25 33//25 35//25
f 36//26 35//26 39//26
f 40//27 39//27 37//27
f 38//28 37//28 33//28
f 39//29 35//29 33//29
f 36//30 40//30 38//30
f 34//25 35//25 36//25
f 36//26 39//26 40//26
f 40//27 37//27 38//27
f 38//28 33//28 34//28
f 39//29 33//29 37//29
f 36//30 38//30 34//30
o Cube.002_Cube.001
v 0.313211 0.100000 0.278915
v 0.684115 0.100000 0.677207
v 0.684115 0.100000 0.278915
v 0.313211 0.100000 0.677207
v 0.313211 0.050000 0.278915
v 0.684115 0.050000 0.677207
v 0.684115 0.050000 0.278915
v 0.313211 0.050000 0.677207
v 0.053814 0.050000 0.000363
v 0.943512 0.050000 0.955758
v 0.943512 0.050000 0.000363
v 0.053814 0.050000 0.955758
v 0.053814 -0.000000 0.000363
v 0.943512 -0.000000 0.955758
v 0.943512 -0.000000 0.000363
v 0.053814 -0.000000 0.955758
vn 0.0000 0.0000 1.0000
vn 0.0000 1.0000 0.0000
vn 0.0000 0.0000 -1.0000
vn -1.0000 0.0000 0.0000
vn 1.0000 0.0000 0.0000
vn 0.0000 -1.0000 0.0000
usemtl Material.001
s off
f 44//31 46//31 42//31
f 45//32 52//32 48//32
f 43//33 45//33 41//33
f 41//34 48//34 44//34
f 42//35 47//35 43//35
f 52//31 54//31 50//31
f 46//32 51//32 47//32
f 48//32 50//32 46//32
f 47//32 49//32 45//32
f 54//36 53//36 55//36
f 51//33 53//33 49//33
f 49//34 56//34 52//34
f 50//35 55//35 51//35
f 44//31 48//31 46//31
f 45//32 49//32 52//32
f 43//33 47//33 45//33
f 41//34 45//34 48//34
f 42//35 46//35 47//35
f 52//31 56//31 54//31
f 46//32 50//32 51//32
f 48//32 52//32 50//32
f 47//32 51//32 49//32
f 54//36 56//36 53//36
f 51//33 55//33 53//33
f 49//34 53//34 56//34
f 50//35 54//35 55//35
o Cube.001_Cube
v 0.000000 0.100000 1.000000
v 0.000000 0.600000 1.000000
v 0.000000 0.100000 0.000000
v 0.000000 0.600000 0.000000
v 1.000000 0.100000 1.000000
v 1.000000 0.600000 1.000000
v 1.000000 0.100000 0.000000
v 1.000000 0.600000 0.000000
v 0.041066 0.101329 1.000000
v 0.041066 0.560263 1.000000
v 0.958934 0.101329 1.000000
v 0.958934 0.560263 1.000000
v 0.041066 0.101329 0.952279
v 0.041066 0.560263 0.952279
v 0.958934 0.101329 0.952279
v 0.958934 0.560263 0.952279
vt 0.000000 0.666667
vt 0.333333 0.333334
vt 0.333333 0.666667
vt 0.666667 0.000000
vt 1.000000 0.333333
vt 0.666667 0.333333
vt 0.333333 1.000000
vt 0.000000 0.666667
vt 0.333333 0.666667
vt 0.666667 0.333333
vt 0.652978 0.026491
vt 0.666667 0.000000
vt 0.000000 0.000001
vt 0.013689 0.015907
vt 0.000000 0.333334
vt 0.666667 0.666666
vt 1.000000 0.333333
vt 1.000000 0.666666
vt 0.333333 0.000001
vt 0.319644 0.015907
vt 0.319644 0.000000
vt 0.347022 0.026491
vt 0.333333 0.000000
vt 0.333333 0.333333
vt 0.347022 0.332447
vt 0.360711 0.333333
vt 0.666667 0.639289
vt 0.360711 0.639289
vt 0.360711 0.639289
vt 0.376618 0.945245
vt 0.360711 0.945245
vt 0.360711 0.639289
vt 0.344803 0.333333
vt 0.360711 0.333333
vt 0.360711 0.945245
vt 0.344804 0.639289
vt 0.360711 0.639289
vt 0.000000 0.333334
vt 1.000000 0.000000
vt 0.000000 1.000000
vt 0.652978 0.332447
vt 0.013689 0.000000
vt 0.666667 0.333333
vt 0.666667 0.333333
vt 0.376618 0.639289
vt 0.344804 0.639289
vt 0.344804 0.945245
vn -1.0000 0.0000 0.0000
vn 0.0000 0.0000 -1.0000
vn 1.0000 0.0000 0.0000
vn -0.0000 0.0000 1.0000
vn -0.0324 -0.9995 0.0000
vn 0.0000 1.0000 0.0000
vn 0.0324 -0.9995 0.0000
vn 0.0000 -1.0000 0.0014
vn 0.0000 -1.0000 0.0000
usemtl Material.006
s off
f 58/1/37 59/2/37 57/3/37
f 60/4/38 63/5/38 59/6/38
f 64/7/39 61/8/39 63/9/39
f 57/10/40 66/11/40 58/12/40
f 61/13/41 71/14/41 63/15/41
f 60/16/42 62/17/42 64/18/42
f 57/19/43 69/20/43 65/21/43
f 71/14/44 59/2/44 63/15/44
f 58/12/40 68/22/40 62/23/40
f 61/24/40 68/22/40 67/25/40
f 72/26/40 69/27/40 71/28/40
f 65/29/39 70/30/39 66/31/39
f 66/32/45 72/33/45 68/34/45
f 68/35/37 71/36/37 67/37/37
f 58/1/37 60/38/37 59/2/37
f 60/4/38 64/39/38 63/5/38
f 64/7/39 62/40/39 61/8/39
f 57/10/40 65/41/40 66/11/40
f 61/13/41 67/42/41 71/14/41
f 60/16/42 58/43/42 62/17/42
f 57/19/43 59/2/43 69/20/43
f 71/14/44 69/20/44 59/2/44
f 58/12/40 66/11/40 68/22/40
f 61/24/40 62/23/40 68/22/40
f 72/26/40 70/44/40 69/27/40
f 65/29/39 69/45/39 70/30/39
f 66/32/45 70/46/45 72/33/45
f 68/35/37 72/47/37 71/36/37
