# Blender v2.79 (sub 0) OBJ File: 'radio.blend'
# www.blender.org
mtllib radio.mtl
o Cube.002_Cube.003
v 0.505139 0.098971 0.830139
v 0.505139 0.913931 0.830139
v 0.505139 0.098971 0.475923
v 0.505139 0.913931 0.475923
v 0.859355 0.098971 0.830139
v 0.859355 0.913931 0.830139
v 0.859355 0.098971 0.475923
v 0.859355 0.913931 0.475923
v 0.563135 0.995704 0.772143
v 0.563135 0.995704 0.533919
v 0.801359 0.995704 0.772143
v 0.801359 0.995704 0.533919
vn -1.0000 0.0000 0.0000
vn 0.0000 0.0000 -1.0000
vn 1.0000 0.0000 0.0000
vn 0.0000 0.0000 1.0000
vn 0.0000 -1.0000 0.0000
vn -0.8157 0.5785 0.0000
vn 0.0000 1.0000 0.0000
vn 0.0000 0.5785 0.8157
vn 0.0000 0.5785 -0.8157
vn 0.8157 0.5785 0.0000
usemtl Material.001
s off
f 1//1 2//1 4//1 3//1
f 3//2 4//2 8//2 7//2
f 7//3 8//3 6//3 5//3
f 5//4 6//4 2//4 1//4
f 3//5 7//5 5//5 1//5
f 4//6 2//6 9//6 10//6
f 12//7 10//7 9//7 11//7
f 2//8 6//8 11//8 9//8
f 8//9 4//9 10//9 12//9
f 6//10 8//10 12//10 11//10
o Cube.001
v 0.141484 0.098971 0.830139
v 0.141484 0.913931 0.830139
v 0.141484 0.098971 0.475923
v 0.141484 0.913931 0.475923
v 0.495699 0.098971 0.830139
v 0.495699 0.913931 0.830139
v 0.495699 0.098971 0.475923
v 0.495699 0.913931 0.475923
v 0.199479 0.995704 0.772143
v 0.199479 0.995704 0.533919
v 0.437704 0.995704 0.772143
v 0.437704 0.995704 0.533919
vn -1.0000 0.0000 0.0000
vn 0.0000 0.0000 -1.0000
vn 1.0000 0.0000 0.0000
vn 0.0000 0.0000 1.0000
vn 0.0000 -1.0000 0.0000
vn -0.8157 0.5785 0.0000
vn 0.0000 1.0000 0.0000
vn 0.0000 0.5785 0.8157
vn 0.0000 0.5785 -0.8157
vn 0.8157 0.5785 0.0000
usemtl Material.001
s off
f 13//11 14//11 16//11 15//11
f 15//12 16//12 20//12 19//12
f 19//13 20//13 18//13 17//13
f 17//14 18//14 14//14 13//14
f 15//15 19//15 17//15 13//15
f 16//16 14//16 21//16 22//16
f 24//17 22//17 21//17 23//17
f 14//18 18//18 23//18 21//18
f 20//19 16//19 22//19 24//19
f 18//20 20//20 24//20 23//20
o Cube
v 0.000000 0.000000 -0.000000
v 1.000000 0.000000 0.000000
v 0.000000 1.000000 -0.000000
v 1.000000 1.000000 0.000000
v 1.000000 0.000000 0.304348
v 0.000000 0.000000 0.304348
v 1.000000 1.000000 0.304348
v 0.000000 1.000000 0.304348
v 0.000000 0.098540 -0.000000
v 1.000000 0.098540 0.000000
v 1.000000 0.098540 0.304348
v 0.000000 0.098540 0.304348
v 0.000000 0.294826 -0.000000
v 1.000000 0.294826 0.000000
v 1.000000 0.294826 0.304348
v 0.000000 0.294826 0.304348
v 0.000000 0.400238 -0.000000
v 1.000000 0.400238 0.000000
v 1.000000 0.400238 0.304348
v 0.000000 0.400238 0.304348
v 0.000000 0.597721 -0.000000
v 1.000000 0.597721 0.000000
v 1.000000 0.597721 0.304348
v 0.000000 0.597721 0.304348
v 0.000000 0.696462 -0.000000
v 1.000000 0.696462 0.000000
v 1.000000 0.696462 0.304348
v 0.000000 0.696462 0.304348
v 0.000000 0.892651 -0.000000
v 1.000000 0.892651 0.000000
v 1.000000 0.892651 0.304348
v 0.000000 0.892651 0.304348
v 0.902115 0.000000 0.905582
v 0.097885 0.000000 0.905582
v 0.902115 0.000000 0.308275
v 0.097885 0.000000 0.308275
v 0.902115 0.098540 0.905582
v 0.902115 0.098540 0.308275
v 0.097885 0.098540 0.308275
v 0.901945 0.294826 0.307206
v 0.098055 0.294826 0.307205
v 0.901945 0.400238 0.307206
v 0.098055 0.400238 0.307205
v 0.901771 0.597721 0.307327
v 0.098229 0.597721 0.307326
v 0.901771 0.696462 0.307327
v 0.098229 0.696462 0.307326
v 0.598237 0.000000 0.000000
v 0.598237 1.000000 -0.000000
v 0.598237 1.000000 0.304348
v 0.598237 0.000000 0.304348
v 0.598237 0.098540 0.000000
v 0.598237 0.098540 1.000000
v 0.598237 0.294826 0.000000
v 0.598237 0.294826 1.000000
v 0.598237 0.400238 0.000000
v 0.598237 0.400238 1.000000
v 0.598237 0.597721 0.000000
v 0.598237 0.597721 1.000000
v 0.598237 0.696462 0.000000
v 0.598237 0.696462 1.000000
v 0.598237 0.892651 0.000000
v 0.598237 0.892651 1.000000
v 0.579005 0.000000 0.905582
v 0.579005 0.000000 0.308275
v 0.579005 0.098540 0.905582
v 0.578972 0.294826 0.901624
v 0.578972 0.400238 0.901624
v 0.578937 0.597721 0.901503
v 0.578937 0.696462 0.901503
v 0.598237 0.892651 0.304348
v 0.402611 1.000000 0.304348
v 0.402611 0.098540 1.000000
v 0.402611 0.294826 1.000000
v 0.402611 0.400238 1.000000
v 0.402611 0.597721 1.000000
v 0.402611 0.696462 1.000000
v 0.402611 0.892651 1.000000
v 0.421677 0.000000 0.905582
v 0.421677 0.098540 0.905582
v 0.421710 0.294826 0.901624
v 0.421710 0.400238 0.901624
v 0.421744 0.597721 0.901503
v 0.421744 0.696462 0.901503
v 0.402611 0.892651 0.304348
v 0.402611 0.000000 0.000000
v 0.402611 1.000000 -0.000000
v 0.402611 0.000000 0.304348
v 0.402611 0.098540 0.000000
v 0.402611 0.294826 -0.000000
v 0.402611 0.400238 -0.000000
v 0.402611 0.597721 -0.000000
v 0.402611 0.696462 -0.000000
v 0.402611 0.892651 -0.000000
v 0.421677 0.000000 0.308275
v 0.000000 0.098540 0.401231
v 1.000000 0.098540 0.401231
v 1.000000 0.294826 0.401231
v 0.000000 0.294826 0.401231
v 1.000000 0.400238 0.401231
v 0.000000 0.400238 0.401231
v 1.000000 0.597721 0.401231
v 0.000000 0.597721 0.401231
v 1.000000 0.696462 0.401231
v 0.000000 0.696462 0.401231
v 1.000000 0.892651 0.401231
v 0.000000 0.892651 0.401231
v 0.902115 0.000000 0.391462
v 0.097885 0.000000 0.391462
v 0.097885 0.098540 0.391461
v 0.902115 0.098540 0.391462
v 0.901945 0.294826 0.389990
v 0.098055 0.294826 0.389990
v 0.901945 0.400238 0.389990
v 0.098055 0.400238 0.389990
v 0.901771 0.597721 0.390077
v 0.098229 0.597721 0.390077
v 0.901771 0.696462 0.390077
v 0.098229 0.696462 0.390077
v 0.592270 0.892651 0.416359
v 0.579005 0.000000 0.391462
v 0.408443 0.892651 0.416359
v 0.421677 0.000000 0.391462
v 0.592270 0.892651 0.887753
v 0.408443 0.892651 0.887753
v -0.000000 0.294826 0.902881
v 1.000000 0.400238 0.902882
v 1.000000 0.696462 0.902882
v -0.000000 0.696462 0.902881
v 1.000000 0.892651 0.902882
v -0.000000 0.892651 0.902881
v 0.902115 0.000000 0.822193
v 0.097885 0.000000 0.822193
v 0.097885 0.098540 0.822193
v 0.902115 0.098540 0.822193
v 0.901945 0.294826 0.818639
v 0.098055 0.294826 0.818639
v 0.901945 0.400238 0.818639
v 0.098055 0.400238 0.818639
v 0.901771 0.597721 0.818552
v 0.098229 0.597721 0.818551
v 0.901771 0.696462 0.818552
v 0.098229 0.696462 0.818551
v 0.579005 0.000000 0.822193
v 0.421677 0.000000 0.822193
v 0.100653 1.000000 0.304348
v 0.100653 0.098540 1.000000
v 0.100653 0.294826 1.000000
v 0.100653 0.400238 1.000000
v 0.100652 0.597721 1.000000
v 0.178833 0.000000 0.905582
v 0.178833 0.098540 0.905582
v 0.178969 0.294826 0.901624
v 0.178969 0.400238 0.901624
v 0.179108 0.597721 0.901503
v 0.179108 0.696462 0.901503
v 0.100653 0.892651 0.304348
v 0.100653 0.000000 -0.000000
v 0.100653 1.000000 -0.000000
v 0.100653 0.000000 0.304348
v 0.100653 0.098540 -0.000000
v 0.100653 0.294826 -0.000000
v 0.100653 0.400238 -0.000000
v 0.100653 0.597721 -0.000000
v 0.100653 0.696462 -0.000000
v 0.100653 0.892651 -0.000000
v 0.178833 0.000000 0.308275
v 0.178833 0.000000 0.391462
v 0.178833 0.000000 0.822193
v 0.897959 0.000000 0.000000
v 0.897959 1.000000 0.000000
v 0.897959 0.000000 0.304348
v 0.897959 0.098540 0.000000
v 0.897959 0.294826 0.000000
v 0.897959 0.400238 0.000000
v 0.897959 0.597721 0.000000
v 0.897959 0.696462 0.000000
v 0.897959 0.892651 0.000000
v 0.820051 0.000000 0.308275
v 0.897959 1.000000 0.304348
v 0.897959 0.098540 1.000000
v 0.897959 0.294826 1.000000
v 0.897959 0.400238 1.000000
v 0.897959 0.597721 1.000000
v 0.820050 0.000000 0.905582
v 0.820050 0.098540 0.905582
v 0.819915 0.294826 0.901624
v 0.819915 0.400238 0.901624
v 0.819776 0.597721 0.901503
v 0.819776 0.696462 0.901503
v 0.897959 0.892651 0.304348
v 0.820051 0.000000 0.391462
v 0.820050 0.000000 0.822193
v 0.592270 0.122575 0.416359
v 0.408443 0.122575 0.416359
v 0.592270 0.122575 0.887753
v 0.408443 0.122575 0.887753
v 1.000000 0.098540 0.902882
v 0.000000 0.098540 0.902881
v 0.097867 0.098540 0.905599
v 1.000000 0.294826 0.902882
v 0.901963 0.294826 0.901642
v 0.098037 0.294826 0.901642
v 0.901963 0.400238 0.901642
v -0.000000 0.400238 0.902881
v 0.098037 0.400238 0.901642
v 1.000000 0.597721 0.902882
v 0.901788 0.597721 0.901521
v -0.000000 0.597721 0.902881
v 0.098211 0.597721 0.901521
v 0.897959 0.696462 1.000000
v 0.901788 0.696462 0.901521
v 0.100652 0.696462 1.000000
v 0.098211 0.696462 0.901520
v 0.897959 0.892651 1.000000
v 0.100652 0.892651 1.000000
v 0.124697 0.892651 0.470057
v 0.178395 0.892651 0.416359
v 0.113427 0.892651 0.363857
v 0.071390 0.892651 0.409892
v 0.178394 0.892651 0.887753
v 0.124697 0.892651 0.834055
v 0.071390 0.892651 0.894220
v 0.113449 0.892651 0.940260
v 0.820217 0.892651 0.416359
v 0.873915 0.892651 0.470057
v 0.927230 0.892651 0.409962
v 0.885185 0.892651 0.363857
v 0.873915 0.892651 0.834056
v 0.820217 0.892651 0.887754
v 0.885162 0.892651 0.940260
v 0.927230 0.892651 0.894151
v 0.178395 0.122575 0.416359
v 0.124697 0.122575 0.470057
v 0.124697 0.122575 0.834055
v 0.178394 0.122575 0.887753
v 0.873915 0.122575 0.470057
v 0.820217 0.122575 0.416359
v 0.820217 0.122575 0.887754
v 0.873915 0.122575 0.834056
v 1.000000 0.000000 0.198287
v 0.000000 0.000000 0.198287
v 1.000000 1.000000 0.198287
v 0.000000 1.000000 0.198287
v 1.000000 0.098540 0.198287
v 0.000000 0.098540 0.198287
v 1.000000 0.294826 0.198287
v 0.000000 0.294826 0.198287
v 1.000000 0.400238 0.198287
v 0.000000 0.400238 0.198287
v 1.000000 0.597721 0.198287
v 0.000000 0.597721 0.198287
v 1.000000 0.696462 0.198287
v 0.000000 0.696462 0.198287
v 1.000000 0.892651 0.198287
v 0.000000 0.892651 0.198287
v 0.647143 1.000000 0.198287
v 0.598237 0.000000 0.198287
v 0.353705 1.000000 0.198287
v 0.402611 0.000000 0.198287
v 0.100653 1.000000 0.198287
v 0.100653 0.000000 0.198287
v 0.897959 0.000000 0.198287
v 0.897959 1.000000 0.198287
v 1.000000 0.000000 0.099144
v 0.000000 0.000000 0.099143
v 1.000000 1.000000 0.099144
v 0.000000 1.000000 0.099143
v 1.000000 0.098540 0.099144
v 0.000000 0.098540 0.099143
v 1.000000 0.294826 0.099144
v 0.000000 0.294826 0.099143
v 1.000000 0.400238 0.099144
v 0.000000 0.400238 0.099143
v 1.000000 0.597721 0.099144
v 0.000000 0.597721 0.099143
v 1.000000 0.696462 0.099144
v 0.000000 0.696462 0.099143
v 1.000000 0.892651 0.099144
v 0.000000 0.892651 0.099143
v 0.598237 0.000000 0.099144
v 0.402611 0.000000 0.099144
v 0.100653 0.000000 0.099143
v 0.897959 0.000000 0.099144
v 0.647144 1.000000 0.099144
v 0.353705 1.000000 0.099143
v 0.100653 1.000000 0.099143
v 0.897959 1.000000 0.099144
v 0.647143 0.950000 0.198287
v 0.353705 0.950000 0.198287
v 0.647144 0.950000 0.099144
v 0.353705 0.950000 0.099143
vn 0.0000 -1.0000 0.0000
vn 0.0000 1.0000 0.0000
vn -1.0000 -0.0000 -0.0000
vn 0.0000 -0.0000 -1.0000
vn 1.0000 0.0000 0.0000
vn -0.0401 0.0000 0.9992
vn 0.0401 0.0000 0.9992
vn 0.0291 0.0000 0.9996
vn -0.0291 0.0000 0.9996
vn 0.0303 0.0000 0.9995
vn -0.0303 0.0000 0.9995
vn -0.0000 0.0000 1.0000
vn 0.0001 -0.0001 1.0000
vn 0.0002 0.0000 1.0000
vn -1.0000 -0.0001 -0.0001
vn 1.0000 0.0000 -0.0002
vn -1.0000 0.0000 -0.0002
vn -0.0002 -0.0000 1.0000
vn 0.6894 -0.0000 0.7244
vn -0.6944 -0.0000 0.7196
vn -0.7071 0.0000 -0.7071
vn -0.7071 0.0000 0.7071
vn 0.7071 0.0000 -0.7071
vn 0.7071 0.0000 0.7071
usemtl Material
s off
f 307//21 290//21 25//21 182//21
f 311//22 183//22 27//22 292//22
f 304//23 292//23 27//23 53//23
f 202//24 195//24 28//24 54//24
f 293//25 289//25 26//25 34//25
f 120//21 36//21 63//21 134//21
f 36//26 30//26 60//26 63//26
f 196//21 29//21 59//21 203//21
f 122//25 121//25 35//25 39//25
f 295//25 293//25 34//25 38//25
f 194//24 197//24 34//24 26//24
f 290//23 294//23 33//23 25//23
f 297//25 295//25 38//25 42//25
f 120//23 123//23 40//23 36//23
f 197//24 198//24 38//24 34//24
f 294//23 296//23 37//23 33//23
f 126//25 124//25 43//25 47//25
f 299//25 297//25 42//25 46//25
f 198//24 199//24 42//24 38//24
f 296//23 298//23 41//23 37//23
f 301//25 299//25 46//25 50//25
f 129//21 52//21 71//21 143//21
f 125//23 127//23 48//23 44//23
f 199//24 200//24 46//24 42//24
f 298//23 300//23 45//23 41//23
f 130//25 128//25 51//25 55//25
f 303//25 301//25 50//25 54//25
f 200//24 201//24 50//24 46//24
f 300//23 302//23 49//23 45//23
f 291//25 303//25 54//25 28//25
f 129//23 131//23 56//23 52//23
f 201//24 202//24 54//24 50//24
f 302//23 304//23 53//23 49//23
f 135//25 132//25 59//25 62//25
f 192//21 133//21 60//21 191//21
f 133//23 134//23 63//23 60//23
f 29//27 35//27 62//27 59//27
f 138//25 136//25 64//25 66//25
f 137//23 139//23 67//23 65//23
f 125//21 44//21 67//21 139//21
f 122//22 39//22 64//22 136//22
f 39//28 43//28 66//28 64//28
f 44//29 40//29 65//29 67//29
f 142//25 140//25 68//25 70//25
f 141//23 143//23 71//23 69//23
f 126//22 47//22 68//22 140//22
f 47//30 51//30 70//30 68//30
f 52//31 48//31 69//31 71//31
f 181//32 170//32 32//32 56//32
f 215//32 204//32 74//32 95//32
f 213//32 214//32 94//32 93//32
f 211//32 212//32 92//32 91//32
f 205//21 77//21 90//21 210//21
f 209//32 210//32 90//32 88//32
f 216//21 145//21 89//21 203//21
f 117//24 118//24 86//24 84//24
f 116//24 117//24 84//24 82//24
f 100//22 83//22 93//22 107//22
f 207//32 208//32 83//32 81//32
f 115//24 116//24 82//24 80//24
f 207//21 81//21 92//21 212//21
f 114//24 115//24 80//24 78//24
f 205//32 206//32 79//32 77//32
f 113//24 114//24 78//24 76//24
f 98//22 79//22 91//22 105//22
f 110//24 113//24 76//24 72//24
f 112//21 75//21 89//21 119//21
f 118//24 111//24 73//24 86//24
f 312//22 195//22 73//22 309//22
f 308//21 305//21 72//21 194//21
f 190//24 183//24 111//24 118//24
f 184//21 112//21 119//21 191//21
f 182//24 185//24 113//24 110//24
f 172//22 98//22 105//22 177//22
f 185//24 186//24 114//24 113//24
f 186//24 187//24 115//24 114//24
f 187//24 188//24 116//24 115//24
f 174//22 100//22 107//22 179//22
f 188//24 189//24 117//24 116//24
f 189//24 190//24 118//24 117//24
f 95//32 74//32 96//32 109//32
f 148//22 149//22 102//22 87//22
f 85//21 101//21 108//21 94//21
f 93//32 94//32 108//32 107//32
f 91//32 92//32 106//32 105//32
f 77//21 97//21 104//21 90//21
f 88//32 90//32 104//32 103//32
f 145//21 147//21 119//21 89//21
f 85//32 87//32 102//32 101//32
f 81//32 83//32 100//32 99//32
f 81//21 99//21 106//21 92//21
f 77//32 79//32 98//32 97//32
f 309//22 73//22 111//22 310//22
f 305//21 306//21 110//21 72//21
f 168//21 169//21 147//21 145//21
f 95//22 109//22 146//22 144//22
f 217//21 168//21 145//21 216//21
f 148//24 254//24 263//24 220//24
f 146//32 242//32 257//32 219//32
f 51//21 128//21 142//21 70//21
f 165//23 167//23 143//23 141//23
f 166//25 164//25 140//25 142//25
f 43//21 124//21 138//21 66//21
f 161//23 163//23 139//23 137//23
f 162//25 160//25 136//25 138//25
f 157//23 158//23 134//23 133//23
f 193//21 157//21 133//21 192//21
f 159//25 156//25 132//25 135//25
f 153//23 155//23 131//23 129//23
f 48//22 127//22 141//22 69//22
f 154//25 152//25 128//25 130//25
f 153//21 129//21 143//21 167//21
f 40//22 123//22 137//22 65//22
f 35//21 121//21 135//21 62//21
f 61//25 57//25 156//25 159//25
f 175//21 58//21 157//21 193//21
f 209//21 88//21 168//21 217//21
f 88//21 103//21 169//21 168//21
f 248//22 247//22 155//22 240//22
f 144//32 146//32 219//32 218//32
f 241//25 246//25 259//25 258//25
f 128//21 152//21 166//21 142//21
f 124//21 151//21 162//21 138//21
f 123//22 150//22 161//22 137//22
f 249//32 144//32 218//32 262//32
f 103//21 175//21 193//21 169//21
f 169//21 193//21 192//21 147//21
f 241//22 244//22 131//22 155//22 247//22 246//22
f 49//24 53//24 190//24 189//24
f 45//24 49//24 189//24 188//24
f 41//24 45//24 188//24 187//24
f 37//24 41//24 187//24 186//24
f 33//24 37//24 186//24 185//24
f 25//24 33//24 185//24 182//24
f 30//21 184//21 191//21 60//21
f 53//24 27//24 183//24 190//24
f 109//32 96//32 170//32 181//32
f 107//32 108//32 180//32 179//32
f 105//32 106//32 178//32 177//32
f 97//21 171//21 176//21 104//21
f 103//32 104//32 176//32 175//32
f 147//21 192//21 191//21 119//21
f 99//32 100//32 174//32 173//32
f 99//21 173//21 178//21 106//21
f 97//32 98//32 172//32 171//32
f 310//22 111//22 183//22 311//22
f 306//21 307//21 182//21 110//21
f 215//22 95//22 144//22 249//22 252//22
f 57//21 209//21 217//21 156//21
f 253//23 250//23 261//23 264//23
f 156//21 217//21 216//21 132//21
f 289//21 308//21 194//21 26//21
f 291//22 28//22 195//22 312//22
f 132//21 216//21 203//21 59//21
f 57//32 61//32 210//32 209//32
f 55//32 31//32 204//32 215//32
f 84//24 86//24 202//24 201//24
f 82//24 84//24 201//24 200//24
f 83//22 208//22 213//22 93//22
f 80//24 82//24 200//24 199//24
f 78//24 80//24 199//24 198//24
f 76//24 78//24 198//24 197//24
f 79//22 206//22 211//22 91//22
f 72//24 76//24 197//24 194//24
f 75//21 196//21 203//21 89//21
f 86//24 73//24 195//24 202//24
f 218//22 219//22 221//22 220//22
f 261//22 262//22 218//22 220//22 263//22 264//22
f 149//24 148//24 220//24 221//24
f 245//24 149//24 221//24 260//24
f 255//22 254//22 148//22 87//22 239//22
f 181//22 56//22 131//22 244//22 243//22
f 130//22 251//22 250//22 253//22 256//22 154//22
f 226//22 225//22 160//22
f 151//21 228//21 162//21
f 232//22 231//22 164//22
f 175//33 176//33 224//33 58//33
f 224//21 223//21 158//21
f 177//34 178//34 230//34 227//34
f 179//34 180//34 238//34 234//34
f 238//21 153//21 167//21
f 154//22 256//22 255//22 239//22
f 235//21 85//21 94//21 214//21
f 235//32 239//32 87//32 85//32
f 231//22 126//22 140//22 164//22
f 225//22 122//22 136//22 160//22
f 229//21 125//21 139//21 163//21
f 229//23 233//23 127//23 125//23
f 231//25 151//25 124//25 126//25
f 223//23 150//23 123//23 120//23
f 225//25 222//25 121//25 122//25
f 223//21 120//21 134//21 158//21
f 206//22 226//22 211//22
f 61//21 205//21 210//21
f 171//21 224//21 176//21
f 228//21 207//21 212//21
f 219//22 257//22 258//22 259//22 260//22 221//22
f 230//21 229//21 163//21
f 236//21 235//21 214//21
f 237//21 238//21 180//21
f 58//35 224//35 158//35 157//35
f 228//36 226//36 160//36 162//36
f 227//37 230//37 163//37 161//37
f 208//22 232//22 213//22
f 227//22 172//22 177//22
f 236//36 232//36 164//36 166//36
f 234//37 238//37 167//37 165//37
f 234//22 174//22 179//22
f 127//22 233//22 165//22 141//22
f 121//21 222//21 159//21 135//21
f 233//22 234//22 165//22
f 150//22 227//22 161//22
f 55//22 215//22 252//22 251//22 130//22
f 101//21 237//21 180//21 108//21
f 101//32 102//32 240//32 237//32
f 173//21 230//21 178//21
f 152//21 236//21 166//21
f 226//38 228//38 212//38 211//38
f 232//38 236//38 214//38 213//38
f 149//22 245//22 248//22 240//22 102//22
f 222//21 205//21 61//21
f 171//21 223//21 224//21
f 206//22 225//22 226//22
f 150//22 172//22 227//22
f 151//21 207//21 228//21
f 173//21 229//21 230//21
f 208//22 231//22 232//22
f 233//22 174//22 234//22
f 152//21 235//21 236//21
f 237//21 153//21 238//21
f 222//39 225//39 206//39 205//39
f 171//40 172//40 150//40 223//40
f 151//39 231//39 208//39 207//39
f 173//40 174//40 233//40 229//40
f 152//39 154//39 239//39 235//39
f 237//40 240//40 155//40 153//40
f 222//21 61//21 159//21
f 241//22 242//22 243//22 244//22
f 245//22 246//22 247//22 248//22
f 249//22 250//22 251//22 252//22
f 253//22 254//22 255//22 256//22
f 263//41 254//41 253//41 264//41
f 249//42 262//42 261//42 250//42
f 259//43 246//43 245//43 260//43
f 241//44 258//44 257//44 242//44
f 109//22 181//22 243//22 242//22 146//22
f 31//22 267//22 288//22 204//22
f 29//21 196//21 287//21 265//21
f 112//21 184//21 286//21 284//21
f 96//22 283//22 285//22 170//22
f 75//21 112//21 284//21 282//21
f 74//22 281//22 283//22 96//22
f 196//21 75//21 282//21 287//21
f 204//22 288//22 281//22 74//22
f 52//23 56//23 280//23 278//23
f 31//25 55//25 279//25 267//25
f 48//23 52//23 278//23 276//23
f 55//25 51//25 277//25 279//25
f 44//23 48//23 276//23 274//23
f 51//25 47//25 275//25 277//25
f 40//23 44//23 274//23 272//23
f 47//25 43//25 273//25 275//25
f 36//23 40//23 272//23 270//23
f 43//25 39//25 271//25 273//25
f 30//23 36//23 270//23 266//23
f 39//25 35//25 269//25 271//25
f 35//25 29//25 265//25 269//25
f 56//23 32//23 268//23 280//23
f 170//22 285//22 268//22 32//22
f 184//21 30//21 266//21 286//21
f 267//22 291//22 312//22 288//22
f 265//21 287//21 308//21 289//21
f 284//21 286//21 307//21 306//21
f 283//22 310//22 311//22 285//22
f 282//21 284//21 306//21 305//21
f 309//32 310//32 316//32 315//32
f 287//21 282//21 305//21 308//21
f 288//22 312//22 309//22 281//22
f 278//23 280//23 304//23 302//23
f 267//25 279//25 303//25 291//25
f 276//23 278//23 302//23 300//23
f 279//25 277//25 301//25 303//25
f 274//23 276//23 300//23 298//23
f 277//25 275//25 299//25 301//25
f 272//23 274//23 298//23 296//23
f 275//25 273//25 297//25 299//25
f 270//23 272//23 296//23 294//23
f 273//25 271//25 295//25 297//25
f 266//23 270//23 294//23 290//23
f 271//25 269//25 293//25 295//25
f 269//25 265//25 289//25 293//25
f 280//23 268//23 292//23 304//23
f 285//22 311//22 292//22 268//22
f 286//21 266//21 290//21 307//21
f 313//22 315//22 316//22 314//22
f 310//25 283//25 314//25 316//25
f 283//24 281//24 313//24 314//24
f 281//23 309//23 315//23 313//23
